<svg width="342" height="387" viewBox="0 0 342 387" fill="none" xmlns="http://www.w3.org/2000/svg">
<path fill-rule="evenodd" clip-rule="evenodd" d="M155.779 15.1369C198.654 9.99923 248.053 -14.1313 282.15 11.8106C316.37 37.847 299.82 91.68 310.426 132.799C320.017 169.98 346.824 202.942 341.243 240.898C335.129 282.484 312.336 321.336 278.838 347.634C244.378 374.687 199.817 390.035 155.779 386.497C113.542 383.104 73.0755 361.328 46.579 328.974C23.1416 300.356 31.2128 259.944 22.8616 224.197C15.5421 192.866 -3.96971 164.478 0.718502 132.668C5.94329 97.2168 21.1211 61.5589 50.0647 39.6207C79.4074 17.3798 118.934 19.552 155.779 15.1369Z" fill="#7618ED" fill-opacity="0.6"/>
</svg>
